<?xml version="1.0" standalone="no"?>
<!DOCTYPE svg PUBLIC "-//W3C//DTD SVG 20010904//EN"
 "http://www.w3.org/TR/2001/REC-SVG-20010904/DTD/svg10.dtd">
<svg version="1.0" xmlns="http://www.w3.org/2000/svg"
 width="700.000000pt" height="700.000000pt" viewBox="0 0 700.000000 700.000000"
 preserveAspectRatio="xMidYMid meet">
<metadata>
Created by potrace 1.14, written by Peter Selinger 2001-2017
</metadata>
<g transform="translate(0.000000,700.000000) scale(0.100000,-0.100000)"
fill="#000000" stroke="none">
<path d="M0 3500 l0 -3500 3500 0 3500 0 0 3500 0 3500 -3500 0 -3500 0 0
-3500z m4100 1780 l0 -471 -77 3 -78 3 -41 150 c-174 627 -153 578 -269 595
-38 5 -240 10 -448 10 l-377 0 2 -1747 c2 -966 7 -1756 12 -1766 16 -33 66
-48 239 -67 94 -11 178 -20 184 -20 9 0 13 -22 13 -75 l0 -75 -700 0 -700 0 0
75 c0 65 2 75 18 75 9 0 93 9 185 20 168 20 217 34 233 67 5 10 10 800 12
1766 l2 1747 -377 0 c-405 -1 -501 -7 -542 -38 -27 -20 -38 -55 -176 -549
l-47 -173 -74 0 -74 0 0 470 0 470 1540 0 1540 0 0 -470z m596 -610 c515 -42
871 -270 1094 -701 101 -195 161 -409 197 -691 24 -192 24 -944 0 -1136 -44
-351 -134 -620 -283 -842 -27 -41 -91 -119 -143 -173 -182 -190 -389 -298
-686 -360 -96 -19 -137 -20 -1037 -24 l-938 -4 0 75 0 74 38 6 c20 3 102 13
182 22 168 18 206 31 217 71 4 15 8 793 8 1728 0 1590 -1 1703 -17 1727 -10
14 -32 31 -50 37 -25 7 -326 41 -372 41 -8 0 -8 145 1 153 11 11 1648 8 1789
-3z"/>
<path d="M3850 2711 l0 -1781 414 0 c324 0 432 3 500 15 183 32 298 87 406
195 148 148 230 367 272 730 9 85 13 304 13 845 0 633 -3 749 -18 870 -64 522
-239 774 -605 873 -97 26 -99 26 -539 30 l-443 3 0 -1780z"/>
</g>
</svg>
